<svg xmlns="http://www.w3.org/2000/svg" xmlns:xlink="http://www.w3.org/1999/xlink" xml:space="preserve" version="1.1" style="shape-rendering:geometricPrecision;text-rendering:geometricPrecision;image-rendering:optimizeQuality;" viewBox="0 0 10000 12500" x="0px" y="0px" fill-rule="evenodd" clip-rule="evenodd"><defs><style type="text/css">
   
    .fil0 {fill:black;fill-rule:nonzero}
   
  </style></defs><g><path class="fil0" d="M6319.58 611.01c269.22,269.2 269.22,711.06 0,980.26 -79.86,79.87 -179.14,140.33 -290.13,173.73l0 630.31 -400 0 0 -630.3c-110.99,-33.39 -210.27,-93.87 -290.13,-173.74 -269.22,-269.2 -269.22,-711.06 0,-980.26 269.2,-269.22 711.06,-269.22 980.26,0zm-2944.14 1982.75l3247.46 0c592.36,0 1076.27,483.91 1076.27,1076.27l0 1314.41c0,499.35 -347.52,934.72 -831.84,1048.12 102.7,87.11 193.64,186.68 271.37,296.63l339.24 -0.93c212.17,0 401.15,109.53 534.68,285.96 121.38,160.38 196.72,378.73 196.72,616.23 0,263.07 -400,263.07 -400,0 0,-148.66 -44.23,-281.47 -115.48,-375.61 -59.1,-78.09 -135.84,-126.58 -215.92,-126.58l-135.43 0c55.39,163.26 83.78,333.7 83.78,506.11 0,646.98 -264.54,1235.04 -690.72,1661.21 -927.08,927.1 -2545.73,927.1 -3472.81,0 -426.18,-426.17 -690.72,-1014.23 -690.72,-1661.21 0,-172.39 28.4,-342.87 83.78,-506.11l-133.76 0c-80.08,0 -156.82,48.49 -215.92,126.58 -71.25,94.14 -115.48,226.95 -115.48,375.61 0,263.07 -400,263.07 -400,0 0,-237.5 75.34,-455.85 196.72,-616.23 133.53,-176.43 322.51,-285.96 534.68,-285.96l337.67 0.79c77.59,-109.76 168.74,-209.52 271.27,-296.49 -484.31,-113.43 -831.83,-548.76 -831.83,-1048.12l0 -1314.41c0,-592.36 483.91,-1076.27 1076.27,-1076.27zm2549.66 3466.95l-1851.87 0c-293.58,18.7 -558.91,146.57 -755.57,343.24 -213.25,213.25 -345.62,507.23 -345.62,830.42 0,536.56 219.66,1024.52 573.54,1378.39 770.88,770.9 2136.29,770.9 2907.17,0 353.88,-353.87 573.54,-841.83 573.54,-1378.39 0,-323.19 -132.37,-617.17 -345.62,-830.42 -196.66,-196.67 -461.99,-324.54 -755.57,-343.24zm697.8 -3066.95l-3247.46 0c-371.54,0 -676.27,304.73 -676.27,676.27l0 1314.41c0,371.54 304.73,676.27 676.27,676.27 1082.48,0 2164.98,0 3247.46,0 371.54,0 676.27,-304.73 676.27,-676.27l0 -1314.41c0,-371.54 -304.73,-676.27 -676.27,-676.27zm-168.06 841.24c269.22,269.2 269.22,711.06 0,980.26 -269.2,269.22 -711.06,269.22 -980.26,0 -269.22,-269.2 -269.22,-711.06 0,-980.26 269.2,-269.22 711.06,-269.22 980.26,0zm-282.82 282.82c-113.83,-113.85 -300.79,-113.85 -414.62,0 -113.85,113.83 -113.85,300.79 0,414.62 113.83,113.85 300.79,113.85 414.62,0 113.85,-113.83 113.85,-300.79 0,-414.62zm-1656.6 -281.11c269.23,269.21 269.21,711.06 0,980.27 -269.2,269.22 -711.06,269.22 -980.26,0 -269.21,-269.21 -269.23,-711.06 0,-980.27 269.2,-269.22 711.06,-269.22 980.26,0zm-282.82 282.82c-113.83,-113.85 -300.79,-113.85 -414.62,0 -113.86,113.84 -113.84,300.79 0,414.63 113.83,113.85 300.79,113.85 414.62,0 113.84,-113.84 113.86,-300.79 0,-414.63zm127.95 -2354.53l0 630.31 -400 0 0 -630.3c-110.99,-33.39 -210.27,-93.87 -290.13,-173.74 -269.22,-269.2 -269.22,-711.06 0,-980.26 269.2,-269.22 711.06,-269.22 980.26,0 269.22,269.2 269.22,711.06 0,980.26 -79.86,79.87 -179.14,140.33 -290.13,173.73zm7.31 -871.17c-113.83,-113.85 -300.79,-113.85 -414.62,0 -113.85,113.83 -113.85,300.79 0,414.62 113.83,113.85 300.79,113.85 414.62,0 113.85,-113.83 113.85,-300.79 0,-414.62zm1668.9 0c-113.83,-113.85 -300.79,-113.85 -414.62,0 -113.85,113.83 -113.85,300.79 0,414.62 113.83,113.85 300.79,113.85 414.62,0 113.85,-113.83 113.85,-300.79 0,-414.62z"/></g><text x="0" y="10015" fill="#000000" font-size="5px" font-weight="bold" font-family="'Helvetica Neue', Helvetica, Arial-Unicode, Arial, Sans-serif">Created by Oleksandr Panasovskyi</text><text x="0" y="10020" fill="#000000" font-size="5px" font-weight="bold" font-family="'Helvetica Neue', Helvetica, Arial-Unicode, Arial, Sans-serif">from the Noun Project</text></svg>